<?xml version="1.0" encoding="UTF-8"?>
<svg data-bbox="0 0 1790.286 147.607" viewBox="0 0 1790.286 147.606" height="147.606" width="1790.286" xmlns="http://www.w3.org/2000/svg" data-type="color">
    <g>
        <path d="M314.342 139.768V8.288h25.604l45.326 70.585 45.846-70.584h24.911v131.48h-23.874V44.617l-47.056 72.834-46.882-72.66v94.976h-23.875z" fill="#002c77" data-color="1"/>
        <path d="M511.124 142.881c-10.38 0-18.714-2.853-24.998-8.562-6.288-5.71-9.429-13.291-9.429-22.75 0-6.803 1.671-12.715 5.017-17.733 3.343-5.017 8.072-8.935 14.186-11.763 6.112-2.825 13.262-4.239 21.452-4.239 9.572 0 18.338 1.673 26.296 5.017v-.346c0-8.418-2.222-14.818-6.66-19.203-4.441-4.382-11.275-6.574-20.5-6.574-5.424 0-10.986.865-16.695 2.595a59.161 59.161 0 0 0-16.003 7.612V46.348c4.727-2.651 10.09-4.9 16.089-6.747 5.996-1.844 12.34-2.768 19.03-2.768 14.762 0 26.123 3.806 34.081 11.418 7.958 7.612 11.937 18.511 11.937 32.697v58.82h-20.24l-.347-14.531c-2.768 5.422-7.153 9.717-13.148 12.888-5.998 3.17-12.688 4.756-20.068 4.756zm-12.629-32.695c0 4.959 1.614 8.795 4.844 11.504 3.227 2.71 7.725 4.064 13.494 4.064 8.187 0 14.532-2.334 19.03-7.005s7.033-11.446 7.612-20.329c-6.574-2.998-14.073-4.498-22.49-4.498-7.383 0-12.975 1.414-16.781 4.239-3.806 2.828-5.709 6.834-5.709 12.025z" fill="#002c77" data-color="1"/>
        <path d="M589.67 139.768V39.947h22.318l.173 20.76c2.652-6.803 6.688-12.223 12.11-16.262 5.42-4.035 11.532-6.055 18.338-6.055 1.844 0 4.036.173 6.575.519 2.535.346 4.554.808 6.054 1.384V62.61c-1.846-.575-4.268-1.095-7.266-1.557-3-.46-5.768-.692-8.304-.692-8.65 0-15.254 2.798-19.809 8.39-4.557 5.596-6.833 13.698-6.833 24.306v46.711h-23.355z" fill="#002c77" data-color="1"/>
        <path d="M702.224 142.881c-3.576 0-7.469-.431-11.677-1.297a75.157 75.157 0 0 1-12.11-3.546c-3.866-1.497-7.24-3.17-10.12-5.016v-20.414c10.263 7.266 21.218 10.898 32.869 10.898 6.803 0 11.764-.836 14.878-2.507 3.114-1.672 4.671-4.297 4.671-7.874 0-3.113-1.414-5.648-4.239-7.61-2.827-1.96-8.276-4.21-16.348-6.749-11.304-3.572-19.29-7.725-23.96-12.455-4.671-4.728-7.007-11.129-7.007-19.203 0-9.342 3.4-16.722 10.207-22.144 6.804-5.42 16.089-8.13 27.853-8.13 4.498 0 9.628.778 15.397 2.334 5.765 1.558 10.783 3.547 15.05 5.97V65.55c-3.692-2.768-8.389-5.044-14.098-6.834-5.709-1.786-10.986-2.681-15.83-2.681-10.842 0-16.262 3.287-16.262 9.861 0 1.963.49 3.606 1.47 4.93.98 1.328 2.796 2.626 5.45 3.893 2.651 1.27 6.458 2.711 11.418 4.325 8.534 2.768 15.251 5.682 20.154 8.737 4.902 3.056 8.42 6.547 10.555 10.467 2.133 3.921 3.201 8.709 3.201 14.359 0 9.228-3.781 16.58-11.334 22.057-7.554 5.476-17.618 8.216-30.188 8.216z" fill="#002c77" data-color="1"/>
        <path d="M763.989 139.768V8.288h23.355v46.018c2.88-5.536 7.033-9.83 12.456-12.889 5.42-3.054 11.648-4.584 18.684-4.584 11.531 0 20.414 3.663 26.642 10.986 6.228 7.325 9.342 17.848 9.342 31.572v60.377h-23.355V83.716c0-17.414-6.69-26.123-20.068-26.123-7.383 0-13.178 2.451-17.386 7.353-4.212 4.903-6.315 11.794-6.315 20.674v54.148H763.99z" fill="#002c77" data-color="1"/>
        <path d="M882.318 139.768V8.288h25.603l45.326 70.585 45.846-70.584h24.912v131.48h-23.875V44.617l-47.054 72.834-46.884-72.66v94.976h-23.874z" fill="#002c77" data-color="1"/>
        <path d="M1097.605 142.881c-10.727 0-20.069-2.134-28.028-6.4-7.957-4.266-14.1-10.35-18.423-18.252-4.325-7.898-6.489-17.154-6.489-27.766 0-10.726 2.221-20.095 6.662-28.112 4.438-8.016 10.61-14.273 18.51-18.77 7.899-4.498 17.041-6.748 27.422-6.748 5.19 0 9.975.635 14.357 1.903 4.383 1.27 8.536 2.768 12.457 4.498v21.625c-3.806-2.306-7.931-4.066-12.369-5.276-4.441-1.211-8.68-1.817-12.716-1.817-9.342 0-16.811 2.855-22.403 8.564-5.595 5.709-8.39 13.466-8.39 23.268 0 10.266 2.795 18.252 8.39 23.961 5.592 5.71 13.348 8.563 23.268 8.563 4.037 0 7.898-.489 11.592-1.471 3.689-.979 7.898-2.508 12.628-4.584v20.588c-3.693 1.845-7.757 3.344-12.197 4.498-4.441 1.15-9.199 1.728-14.271 1.728z" fill="#002c77" data-color="1"/>
        <path d="M1148.984 139.768V8.288h24.22v109.855h60.55v21.625h-84.77z" fill="#002c77" data-color="1"/>
        <path d="M1300.702 142.881c-10.841 0-20.472-2.017-28.89-6.054-8.42-4.036-15.051-9.975-19.895-17.819-4.844-7.842-7.267-17.472-7.267-28.89 0-10.494 2.164-19.723 6.488-27.681s10.293-14.213 17.906-18.77c7.612-4.555 16.319-6.834 26.123-6.834 9.342 0 17.5 2.05 24.479 6.141 6.976 4.096 12.369 9.834 16.176 17.214 3.806 7.383 5.709 16.032 5.709 25.95 0 1.384-.06 2.741-.174 4.066-.116 1.328-.29 3.316-.518 5.968h-73.353c1.384 8.305 5.074 14.791 11.072 19.463 5.996 4.67 14.07 7.006 24.22 7.006 12.917 0 24.795-4.035 35.64-12.11v20.587c-5.192 3.576-11.102 6.431-17.733 8.564-6.635 2.133-13.295 3.2-19.983 3.2zm-6.574-88.056c-7.383 0-13.38 2.279-17.992 6.834-4.613 4.557-7.498 10.928-8.65 19.116h51.9c0-1.497-.115-2.824-.346-3.979-1.154-7.15-3.865-12.6-8.13-16.348-4.268-3.747-9.862-5.623-16.782-5.623z" fill="#002c77" data-color="1"/>
        <path d="M1362.462 139.768V39.947h22.488l.174 15.916c2.768-5.995 6.948-10.666 12.543-14.013 5.592-3.344 12.024-5.017 19.29-5.017 11.53 0 20.413 3.663 26.642 10.986 6.226 7.325 9.342 17.848 9.342 31.572v60.377h-23.356V83.716c0-17.414-6.69-26.123-20.068-26.123-7.381 0-13.178 2.451-17.387 7.353-4.21 4.903-6.314 11.794-6.314 20.674v54.148h-23.354z" fill="#002c77" data-color="1"/>
        <path d="M1477.679 139.768V39.947h22.488l.174 15.916c2.768-5.995 6.947-10.666 12.543-14.013 5.592-3.344 12.023-5.017 19.29-5.017 11.53 0 20.413 3.663 26.642 10.986 6.226 7.325 9.341 17.848 9.341 31.572v60.377h-23.355V83.716c0-17.414-6.69-26.123-20.068-26.123-7.381 0-13.178 2.451-17.387 7.353-4.211 4.903-6.315 11.794-6.315 20.674v54.148h-23.353z" fill="#002c77" data-color="1"/>
        <path d="M1621.265 142.881c-10.379 0-18.713-2.853-24.998-8.562-6.287-5.71-9.43-13.291-9.43-22.75 0-6.803 1.672-12.715 5.018-17.733 3.343-5.017 8.072-8.935 14.185-11.763 6.114-2.825 13.262-4.239 21.453-4.239 9.573 0 18.338 1.673 26.295 5.017v-.346c0-8.418-2.22-14.818-6.66-19.203-4.441-4.382-11.273-6.574-20.5-6.574-5.422 0-10.986.865-16.695 2.595a59.142 59.142 0 0 0-16.002 7.612V46.348c4.728-2.651 10.092-4.9 16.09-6.747 5.994-1.844 12.34-2.768 19.029-2.768 14.762 0 26.123 3.806 34.08 11.418 7.96 7.612 11.938 18.511 11.938 32.697v58.82h-20.24l-.346-14.531c-2.77 5.422-7.153 9.717-13.149 12.888-5.998 3.17-12.69 4.756-20.068 4.756zm-12.629-32.695c0 4.959 1.613 8.795 4.844 11.504 3.228 2.71 7.726 4.064 13.494 4.064 8.187 0 14.531-2.334 19.03-7.005s7.034-11.446 7.612-20.329c-6.574-2.998-14.072-4.498-22.49-4.498-7.383 0-12.974 1.414-16.781 4.239-3.807 2.828-5.709 6.834-5.709 12.025z" fill="#002c77" data-color="1"/>
        <path d="M1699.808 139.768V39.947h22.488l.174 15.916c2.768-5.995 6.947-10.666 12.543-14.013 5.592-3.344 12.023-5.017 19.289-5.017 11.531 0 20.414 3.663 26.643 10.986 6.226 7.325 9.341 17.848 9.341 31.572v60.377h-23.355V83.716c0-17.414-6.69-26.123-20.068-26.123-7.381 0-13.178 2.451-17.387 7.353-4.211 4.903-6.315 11.794-6.315 20.674v54.148h-23.353z" fill="#002c77" data-color="1"/>
        <path d="M241.867 31.885 189.296 1.6c-3.702-2.133-9.761-2.133-13.463 0L30.8 85.148l80.257-61.488L72.764 1.6C69.06-.533 63.003-.533 59.3 1.6L6.73 31.885C3.026 34.017-.004 39.258 0 43.527v60.544c-.003 4.277 3.027 9.518 6.73 11.65l52.57 30.286c3.703 2.133 9.761 2.133 13.464 0l145.032-83.549-80.257 61.489 38.294 22.06c3.702 2.133 9.76 2.133 13.463 0l52.571-30.285c3.703-2.133 6.732-7.374 6.732-11.647V43.531c0-4.273-3.03-9.514-6.732-11.646z" fill="#002c77" data-color="1"/>
    </g>
</svg>
